<?xml version="1.0" encoding="utf-8"?>
<!-- Generator: Adobe Illustrator 26.3.1, SVG Export Plug-In . SVG Version: 6.00 Build 0)  -->
<svg version="1.1" xmlns="http://www.w3.org/2000/svg" xmlns:xlink="http://www.w3.org/1999/xlink" x="0px" y="0px"
	 viewBox="0 0 43.8 49.3" style="enable-background:new 0 0 43.8 49.3;" xml:space="preserve">
<style type="text/css">
	.st0{fill:#4E4E4E;}
	.st1{opacity:0.5;}
	.st2{fill:none;stroke:#333333;stroke-miterlimit:10;}
	.st3{fill:#333333;}
	.st4{fill-rule:evenodd;clip-rule:evenodd;fill:#333333;}
	.st5{fill:none;stroke:#FFFFFF;stroke-miterlimit:10;}
	.st6{fill:#FFFFFF;}
	.st7{fill-rule:evenodd;clip-rule:evenodd;fill:#FFFFFF;}
</style>
<g id="Calque_1">
	<g id="Calque_2_1_">
		<g>
			<path class="st0" d="M0.6,34.9c0,4.7,3.8,8.5,8.5,8.5h26.4c4.7,0,8.5-3.8,8.5-8.5V8.6c0-4.7-3.8-8.5-8.5-8.5H9.1
				C4.4,0,0.6,3.9,0.6,8.6V34.9z"/>
		</g>
	</g>
</g>
<g id="Calque_2" class="st1">
	<polyline class="st2" points="6.3,33.8 6.3,17.7 22.4,9 38.7,17.6 39,33.8 	"/>
	<path class="st3" d="M26.1,24.8c0-0.3-0.2-0.5-0.5-0.5h-7.5c-0.3,0-0.5,0.2-0.5,0.5v8.5c0,0.3,0.2,0.5,0.5,0.5h7.5
		c0.3,0,0.5-0.2,0.5-0.5V24.8z M19.2,28.1c0,0.1-0.1,0.2-0.2,0.2h-0.3c-0.1,0-0.2-0.1-0.2-0.2v-2.6c0-0.1,0.1-0.2,0.2-0.2H19
		c0.1,0,0.2,0.1,0.2,0.2V28.1z M26.1,19.3c0-0.3-0.2-0.5-0.5-0.5h-7.5c-0.3,0-0.5,0.2-0.5,0.5v3.8c0,0.3,0.2,0.5,0.5,0.5h7.5
		c0.3,0,0.5-0.2,0.5-0.5V19.3z M19.2,22.6c0,0.1-0.1,0.2-0.2,0.2h-0.3c-0.1,0-0.2-0.1-0.2-0.2v-2.6c0-0.1,0.1-0.2,0.2-0.2H19
		c0.1,0,0.2,0.1,0.2,0.2V22.6z"/>
	<path class="st4" d="M27.3,28.4c0-0.2,0.1-0.3,0.3-0.3h8.8c0.2,0,0.3,0.1,0.3,0.3v5c0,0.2-0.1,0.3-0.3,0.3l0,0h-8.8
		c-0.2,0-0.3-0.1-0.3-0.3 M28.1,31.7c0.1,0.1,0.2,0.1,0.3,0.1c0.1,0,0.2-0.1,0.3-0.1l0,0c0.1-0.1,0.1-0.2,0.1-0.3
		c0-0.1-0.1-0.2-0.1-0.3l0,0c-0.1-0.1-0.2-0.1-0.3-0.1c-0.1,0-0.2,0.1-0.3,0.1l0,0c-0.1,0.1-0.1,0.2-0.1,0.3
		C28,31.5,28.1,31.6,28.1,31.7L28.1,31.7L28.1,31.7z M28.2,32.6c0.1,0.1,0.1,0.1,0.2,0.1c0.1,0,0.2,0,0.2-0.1l0,0
		c0.1-0.1,0.1-0.1,0.1-0.2c0-0.1,0-0.2-0.1-0.2l0,0C28.7,32,28.6,32,28.5,32c-0.1,0-0.2,0-0.2,0.1l0,0c-0.1,0.1-0.1,0.1-0.1,0.2
		C28.1,32.4,28.2,32.5,28.2,32.6L28.2,32.6L28.2,32.6z M35.8,33.3h-5.6c-0.1,0-0.2,0-0.3-0.1c-0.1-0.1-0.1-0.2-0.1-0.3v-3.9
		c0-0.1,0-0.2,0.1-0.3l0,0c0.1-0.1,0.2-0.1,0.3-0.1h5.6c0.1,0,0.2,0,0.3,0.1c0.1,0.1,0.1,0.2,0.1,0.3v3.9c0,0.1,0,0.2-0.1,0.3l0,0
		l0,0C36,33.2,35.9,33.3,35.8,33.3L35.8,33.3z M30.2,32.9h5.6c0,0,0,0,0,0l0,0c0,0,0,0,0,0v-3.9c0,0,0,0,0,0c0,0,0,0,0,0h-5.6
		c0,0,0,0,0,0h0c0,0,0,0,0,0L30.2,32.9C30.1,32.9,30.1,32.9,30.2,32.9C30.2,32.9,30.2,32.9,30.2,32.9L30.2,32.9z"/>
	<path class="st4" d="M8.8,24.5h1.9v1.9H8.5v0.4h7.7v-0.4h-5.2v-1.9H16c0.1,0,0.2,0.1,0.2,0.2v8.8c0,0.1-0.1,0.2-0.2,0.2H8.8
		c-0.1,0-0.2-0.1-0.2-0.2v-8.8C8.5,24.6,8.6,24.5,8.8,24.5L8.8,24.5z M12.4,27.4c0.8,0,1.4,0.3,1.9,0.8c0.5,0.5,0.8,1.2,0.8,1.9
		c0,0.8-0.3,1.4-0.8,1.9c-0.5,0.5-1.2,0.8-1.9,0.8c-0.8,0-1.4-0.3-1.9-0.8c-0.5-0.5-0.8-1.2-0.8-1.9c0-0.8,0.3-1.4,0.8-1.9
		C10.9,27.7,11.6,27.4,12.4,27.4L12.4,27.4z M14,28.5c-0.4-0.4-1-0.7-1.7-0.7c-0.7,0-1.3,0.3-1.7,0.7c-0.4,0.4-0.7,1-0.7,1.7
		c0,0.7,0.3,1.3,0.7,1.7c0.4,0.4,1,0.7,1.7,0.7c0.7,0,1.3-0.3,1.7-0.7c0.4-0.4,0.7-1,0.7-1.7C14.7,29.5,14.5,28.9,14,28.5L14,28.5z
		 M12.4,28.2c0.5,0,1,0.2,1.4,0.6c0.4,0.3,0.6,0.8,0.6,1.4l0,0.1l-0.1,0c-0.4,0.1-0.7,0.4-0.9,0.7c-0.2,0.3-0.3,0.6-0.3,1h0l0,0
		l0,0.1l-0.1,0c-0.1,0-0.2,0.1-0.3,0.1c-0.1,0-0.2,0-0.3,0c-0.6,0-1.1-0.2-1.4-0.6c-0.4-0.4-0.6-0.9-0.6-1.4c0-0.6,0.2-1.1,0.6-1.4
		C11.3,28.4,11.8,28.2,12.4,28.2L12.4,28.2z M13.5,29c-0.3-0.3-0.7-0.5-1.1-0.5c-0.5,0-0.9,0.2-1.2,0.5c-0.3,0.3-0.5,0.7-0.5,1.2
		c0,0.5,0.2,0.9,0.5,1.2c0.3,0.3,0.7,0.5,1.2,0.5c0.1,0,0.2,0,0.3,0c0,0,0.1,0,0.1,0c0-0.4,0.2-0.8,0.4-1.1c0.2-0.3,0.5-0.6,0.9-0.7
		C14,29.6,13.8,29.2,13.5,29L13.5,29z M14.9,25c0.3,0,0.5,0.2,0.5,0.5c0,0.3-0.2,0.5-0.5,0.5c-0.3,0-0.5-0.2-0.5-0.5
		C14.4,25.2,14.6,25,14.9,25L14.9,25z M13.5,25.1c0.2,0,0.4,0.2,0.4,0.4c0,0.2-0.2,0.4-0.4,0.4c-0.2,0-0.4-0.2-0.4-0.4
		C13.2,25.3,13.3,25.1,13.5,25.1L13.5,25.1z"/>
</g>
<g id="Calque_2_-_copie">
	<polyline class="st5" points="6,33.5 6,17.3 22.2,8.7 38.4,17.3 38.8,33.5 	"/>
	<path class="st6" d="M25.9,24.4c0-0.3-0.2-0.5-0.5-0.5h-7.5c-0.3,0-0.5,0.2-0.5,0.5V33c0,0.3,0.2,0.5,0.5,0.5h7.5
		c0.3,0,0.5-0.2,0.5-0.5V24.4z M19,27.7c0,0.1-0.1,0.2-0.2,0.2h-0.3c-0.1,0-0.2-0.1-0.2-0.2v-2.6c0-0.1,0.1-0.2,0.2-0.2h0.3
		c0.1,0,0.2,0.1,0.2,0.2V27.7z M25.9,19c0-0.3-0.2-0.5-0.5-0.5h-7.5c-0.3,0-0.5,0.2-0.5,0.5v3.8c0,0.3,0.2,0.5,0.5,0.5h7.5
		c0.3,0,0.5-0.2,0.5-0.5V19z M19,22.3c0,0.1-0.1,0.2-0.2,0.2h-0.3c-0.1,0-0.2-0.1-0.2-0.2v-2.6c0-0.1,0.1-0.2,0.2-0.2h0.3
		c0.1,0,0.2,0.1,0.2,0.2V22.3z"/>
	<path class="st7" d="M27.1,28.1c0-0.2,0.1-0.3,0.3-0.3h8.8c0.2,0,0.3,0.1,0.3,0.3v5c0,0.2-0.1,0.3-0.3,0.3l0,0h-8.8
		c-0.2,0-0.3-0.1-0.3-0.3 M27.9,31.4c0.1,0.1,0.2,0.1,0.3,0.1c0.1,0,0.2-0.1,0.3-0.1l0,0c0.1-0.1,0.1-0.2,0.1-0.3s-0.1-0.2-0.1-0.3
		l0,0c-0.1-0.1-0.2-0.1-0.3-0.1c-0.1,0-0.2,0.1-0.3,0.1l0,0c-0.1,0.1-0.1,0.2-0.1,0.3S27.8,31.4,27.9,31.4L27.9,31.4L27.9,31.4z
		 M28,32.3c0.1,0.1,0.1,0.1,0.2,0.1c0.1,0,0.2,0,0.2-0.1l0,0c0.1-0.1,0.1-0.1,0.1-0.2c0-0.1,0-0.2-0.1-0.2l0,0
		c-0.1-0.1-0.1-0.1-0.2-0.1c-0.1,0-0.2,0-0.2,0.1l0,0c-0.1,0.1-0.1,0.1-0.1,0.2C27.9,32.2,27.9,32.3,28,32.3L28,32.3L28,32.3z
		 M35.6,33h-5.6c-0.1,0-0.2,0-0.3-0.1c-0.1-0.1-0.1-0.2-0.1-0.3v-3.9c0-0.1,0-0.2,0.1-0.3l0,0c0.1-0.1,0.2-0.1,0.3-0.1h5.6
		c0.1,0,0.2,0,0.3,0.1c0.1,0.1,0.1,0.2,0.1,0.3v3.9c0,0.1,0,0.2-0.1,0.3l0,0l0,0C35.8,33,35.7,33,35.6,33L35.6,33z M29.9,32.6h5.6
		c0,0,0,0,0,0l0,0c0,0,0,0,0,0v-3.9c0,0,0,0,0,0c0,0,0,0,0,0h-5.6c0,0,0,0,0,0h0c0,0,0,0,0,0L29.9,32.6
		C29.9,32.6,29.9,32.6,29.9,32.6C29.9,32.6,29.9,32.6,29.9,32.6L29.9,32.6z"/>
	<path class="st7" d="M8.5,24.2h1.9V26H8.3v0.4H16V26h-5.2v-1.9h4.9c0.1,0,0.2,0.1,0.2,0.2v8.8c0,0.1-0.1,0.2-0.2,0.2H8.5
		c-0.1,0-0.2-0.1-0.2-0.2v-8.8C8.3,24.3,8.4,24.2,8.5,24.2L8.5,24.2z M12.1,27.1c0.8,0,1.4,0.3,1.9,0.8c0.5,0.5,0.8,1.2,0.8,1.9
		c0,0.8-0.3,1.4-0.8,1.9c-0.5,0.5-1.2,0.8-1.9,0.8c-0.8,0-1.4-0.3-1.9-0.8c-0.5-0.5-0.8-1.2-0.8-1.9c0-0.8,0.3-1.4,0.8-1.9
		C10.7,27.4,11.4,27.1,12.1,27.1L12.1,27.1z M13.8,28.2c-0.4-0.4-1-0.7-1.7-0.7c-0.7,0-1.3,0.3-1.7,0.7c-0.4,0.4-0.7,1-0.7,1.7
		c0,0.7,0.3,1.3,0.7,1.7c0.4,0.4,1,0.7,1.7,0.7c0.7,0,1.3-0.3,1.7-0.7c0.4-0.4,0.7-1,0.7-1.7C14.5,29.2,14.2,28.6,13.8,28.2
		L13.8,28.2z M12.1,27.8c0.5,0,1,0.2,1.4,0.6c0.4,0.3,0.6,0.8,0.6,1.4l0,0.1l-0.1,0c-0.4,0.1-0.7,0.4-0.9,0.7
		c-0.2,0.3-0.3,0.6-0.3,1h0l0,0l0,0.1l-0.1,0c-0.1,0-0.2,0.1-0.3,0.1c-0.1,0-0.2,0-0.3,0c-0.6,0-1.1-0.2-1.4-0.6
		c-0.4-0.4-0.6-0.9-0.6-1.4c0-0.6,0.2-1.1,0.6-1.4C11,28.1,11.6,27.8,12.1,27.8L12.1,27.8z M13.3,28.7c-0.3-0.3-0.7-0.5-1.1-0.5
		c-0.5,0-0.9,0.2-1.2,0.5c-0.3,0.3-0.5,0.7-0.5,1.2c0,0.5,0.2,0.9,0.5,1.2c0.3,0.3,0.7,0.5,1.2,0.5c0.1,0,0.2,0,0.3,0
		c0,0,0.1,0,0.1,0c0-0.4,0.2-0.8,0.4-1.1c0.2-0.3,0.5-0.6,0.9-0.7C13.7,29.3,13.5,28.9,13.3,28.7L13.3,28.7z M14.6,24.7
		c0.3,0,0.5,0.2,0.5,0.5c0,0.3-0.2,0.5-0.5,0.5c-0.3,0-0.5-0.2-0.5-0.5C14.2,24.9,14.4,24.7,14.6,24.7L14.6,24.7z M13.3,24.8
		c0.2,0,0.4,0.2,0.4,0.4c0,0.2-0.2,0.4-0.4,0.4c-0.2,0-0.4-0.2-0.4-0.4C12.9,24.9,13.1,24.8,13.3,24.8L13.3,24.8z"/>
</g>
</svg>
